<svg width="23" height="22" viewBox="0 0 23 22" fill="none" xmlns="http://www.w3.org/2000/svg">
<path d="M15.885 14.786C14.735 14.326 8.99805 11.789 8.99805 7H2.99805C1.89405 7 0.998047 7.897 0.998047 9V16C0.998047 17.103 1.89405 18 2.99805 18H3.99805V22L9.33205 18H13.998C15.102 18 15.998 17.103 15.998 16V14.832L15.885 14.786Z" fill="#A7A8AA"/>
<path fill-rule="evenodd" clip-rule="evenodd" d="M10.998 7V0H22.998V7C22.998 10.813 19.201 12.58 17.194 12.981L16.998 13.02L16.802 12.981C14.795 12.579 10.998 10.812 10.998 7ZM16 2H18V7H16V2ZM16 8H18V10H16V8Z" fill="#A7A8AA"/>
</svg>
