<svg width="18" height="21" viewBox="0 0 18 21" fill="none" xmlns="http://www.w3.org/2000/svg">
<path d="M16.001 3H15.001V6H3.00098V3H2.00098C1.47054 3 0.961836 3.21071 0.586763 3.58579C0.21169 3.96086 0.000976563 4.46957 0.000976562 5V19C0.000976563 19.5304 0.21169 20.0391 0.586763 20.4142C0.961836 20.7893 1.47054 21 2.00098 21H16.001C16.5314 21 17.0401 20.7893 17.4152 20.4142C17.7903 20.0391 18.001 19.5304 18.001 19V5C18.001 4.46957 17.7903 3.96086 17.4152 3.58579C17.0401 3.21071 16.5314 3 16.001 3ZM9.00098 9C9.66402 9 10.2999 9.26339 10.7687 9.73223C11.2376 10.2011 11.501 10.837 11.501 11.5C11.501 12.163 11.2376 12.7989 10.7687 13.2678C10.2999 13.7366 9.66402 14 9.00098 14C8.33794 14 7.70205 13.7366 7.23321 13.2678C6.76437 12.7989 6.50098 12.163 6.50098 11.5C6.50098 10.837 6.76437 10.2011 7.23321 9.73223C7.70205 9.26339 8.33794 9 9.00098 9ZM5.25098 19C5.25098 16.699 6.69998 15.25 9.00098 15.25C11.302 15.25 12.751 16.699 12.751 19H5.25098Z" fill="#A7A8AA"/>
<path d="M11.001 2C11.001 1.46957 10.7903 0.960859 10.4152 0.585786C10.0401 0.210714 9.53141 0 9.00098 0C8.47054 0 7.96184 0.210714 7.58676 0.585786C7.21169 0.960859 7.00098 1.46957 7.00098 2H5.00098V5H13.001V2H11.001Z" fill="#A7A8AA"/>
</svg>
