<svg width="24" height="24" viewBox="0 0 24 24" fill="none" xmlns="http://www.w3.org/2000/svg">
<path d="M20 6V5H18V6H16V4C16 3.73478 15.8946 3.48043 15.7071 3.29289C15.5196 3.10536 15.2652 3 15 3H9C8.73478 3 8.48043 3.10536 8.29289 3.29289C8.10536 3.48043 8 3.73478 8 4V6H6V5H4V6C2.897 6 2 6.897 2 8V20C2 21.104 2.897 22 4 22H20C20.5304 22 21.0391 21.7893 21.4142 21.4142C21.7893 21.0391 22 20.5304 22 20V8C22 6.897 21.104 6 20 6ZM10 5H14V6H10V5ZM15 12H11.5C11.3674 12 11.2402 12.0527 11.1464 12.1464C11.0527 12.2402 11 12.3674 11 12.5C11 12.6326 11.0527 12.7598 11.1464 12.8536C11.2402 12.9473 11.3674 13 11.5 13H12.5C13.878 13 15 14.122 15 15.5C14.9992 16.0761 14.7998 16.6343 14.4355 17.0805C14.0712 17.5268 13.5643 17.8339 13 17.95V19H11V18H9V16H12.5C12.6326 16 12.7598 15.9473 12.8536 15.8536C12.9473 15.7598 13 15.6326 13 15.5C13 15.3674 12.9473 15.2402 12.8536 15.1464C12.7598 15.0527 12.6326 15 12.5 15H11.5C10.8372 14.9992 10.2018 14.7356 9.73311 14.2669C9.26444 13.7982 9.00079 13.1628 9 12.5C9 11.293 9.859 10.283 11 10.051V9H13V10H15V12Z" fill="#A7A8AA"/>
</svg>
