<svg width="24" height="21" viewBox="0 0 24 21" fill="none" xmlns="http://www.w3.org/2000/svg">
<path d="M23.6333 17.738L22.0003 12.84V1.00301C22.0003 0.73779 21.8949 0.483436 21.7074 0.295899C21.5198 0.108363 21.2655 0.00300598 21.0003 0.00300598H3.00028C2.73506 0.00300598 2.48071 0.108363 2.29317 0.295899C2.10563 0.483436 2.00028 0.73779 2.00028 1.00301V12.84L0.367277 17.737C0.181277 18.295 0.258277 18.867 0.575277 19.309C0.893277 19.75 1.41228 20.003 2.00028 20.003H22.0003C22.5883 20.003 23.1073 19.75 23.4253 19.309C23.7423 18.867 23.8183 18.295 23.6333 17.738ZM12.0003 7.00301C11.7376 7.00294 11.4774 6.95113 11.2348 6.85054C10.9921 6.74994 10.7716 6.60253 10.5859 6.41672C10.4001 6.23091 10.2528 6.01034 10.1524 5.7676C10.0519 5.52487 10.0002 5.26472 10.0003 5.00201C10.0003 4.7393 10.0522 4.47917 10.1527 4.23649C10.2533 3.9938 10.4008 3.7733 10.5866 3.58759C10.7724 3.40187 10.9929 3.25457 11.2357 3.15409C11.4784 3.05362 11.7386 3.00194 12.0013 3.00201C12.5318 3.00214 13.0406 3.21303 13.4157 3.58829C13.7908 3.96355 14.0014 4.47244 14.0013 5.00301C14.0011 5.53357 13.7903 6.04235 13.415 6.41743C13.0397 6.7925 12.5308 7.00314 12.0003 7.00301C13.0611 7.00301 14.0786 7.42443 14.8287 8.17458C15.5789 8.92472 16.0003 9.94214 16.0003 11.003H8.00028C8.00028 9.94214 8.4217 8.92472 9.17185 8.17458C9.922 7.42443 10.9394 7.00301 12.0003 7.00301ZM2.38828 18.003L3.72128 14.003H20.2803L21.6133 18.003H2.38828Z" fill="#A7A8AA"/>
</svg>
