<svg width="24" height="24" viewBox="0 0 24 24" fill="none" xmlns="http://www.w3.org/2000/svg">
<path d="M18 18C19.6569 18 21 16.6569 21 15C21 13.3431 19.6569 12 18 12C16.3431 12 15 13.3431 15 15C15 16.6569 16.3431 18 18 18Z" fill="#A7A8AA"/>
<path d="M18 18C15.24 18 13 20.239 13 23H23C23 22.3434 22.8707 21.6932 22.6194 21.0866C22.3681 20.48 21.9998 19.9288 21.5355 19.4645C21.0712 19.0002 20.52 18.6319 19.9134 18.3806C19.3068 18.1293 18.6566 18 18 18Z" fill="#A7A8AA"/>
<path fill-rule="evenodd" clip-rule="evenodd" d="M15.0551 17.707C14.4 16.9947 14 16.0441 14 15C14 13.1362 15.2748 11.5701 17 11.126V1.99902C16.9995 1.82864 16.9556 1.66118 16.8725 1.51246C16.7893 1.36373 16.6697 1.23864 16.5248 1.14899C16.3799 1.05933 16.2145 1.00806 16.0443 1.00002C15.8741 0.991978 15.7047 1.02743 15.552 1.10302L12.072 2.84602L9.555 1.16802C9.39063 1.05897 9.19775 1.00081 9.0005 1.00081C8.80325 1.00081 8.61037 1.05897 8.446 1.16802L5.928 2.84702L2.448 1.10402C2.29538 1.02846 2.12602 0.993011 1.95591 1.00101C1.78579 1.009 1.62051 1.06018 1.47565 1.14972C1.33078 1.23926 1.2111 1.36421 1.12789 1.5128C1.04467 1.66139 1.00066 1.82872 1 1.99902V19.999C1.00053 20.2642 1.10602 20.5183 1.29342 20.7059C1.48081 20.8935 1.73485 20.9992 2 21C2.15524 21.0002 2.30835 20.9638 2.447 20.894L5.927 19.154L8.445 20.832C8.60923 20.9415 8.80216 20.9998 8.9995 20.9998C9.19684 20.9998 9.38977 20.9415 9.554 20.832L12.071 19.154L13.0319 19.6348C13.5541 18.8653 14.2505 18.2235 15.0643 17.766C15.0612 17.7464 15.0581 17.7267 15.0551 17.707ZM8.5 8.99902H12V6.99902H10V5.99902H8V7.05002C6.86 7.28302 6 8.29202 6 9.50002C6.00079 10.1628 6.26444 10.7982 6.73311 11.2669C7.20178 11.7356 7.8372 11.9992 8.5 12H9.5C9.63261 12 9.75979 12.0527 9.85355 12.1465C9.94732 12.2402 10 12.3674 10 12.5C10 12.6326 9.94732 12.7598 9.85355 12.8536C9.75979 12.9473 9.63261 13 9.5 13H6V15H8V16H10V14.95C11.14 14.717 12 13.708 12 12.5C12 11.122 10.879 10 9.5 10H8.5C8.37395 9.99026 8.25623 9.93329 8.17036 9.84051C8.08448 9.74772 8.03678 9.62595 8.03678 9.49952C8.03678 9.3731 8.08448 9.25133 8.17036 9.15854C8.25623 9.06576 8.37395 9.00879 8.5 8.99902Z" fill="#A7A8AA"/>
</svg>
